Coordinates
version=1
nRows=13
nColumns=63
inDegrees=yes

Units are S.I. units (second, meters, Newtons, ...)
If the header above contains a line with 'inDegrees', this indicates whether rotational values are in degrees (yes) or radians (no).

endheader
time	pelvis_tilt	pelvis_list	pelvis_rotation	pelvis_tx	pelvis_ty	pelvis_tz	hip_flexion_r	hip_adduction_r	hip_rotation_r	knee_angle_r	knee_angle_r_beta	ankle_angle_r	subtalar_angle_r	mtp_angle_r	hip_flexion_l	hip_adduction_l	hip_rotation_l	knee_angle_l	knee_angle_l_beta	ankle_angle_l	subtalar_angle_l	mtp_angle_l	L5_S1_Flex_Ext	L5_S1_Lat_Bending	L5_S1_axial_rotation	L4_L5_Flex_Ext	L4_L5_Lat_Bending	L4_L5_axial_rotation	L3_L4_Flex_Ext	L3_L4_Lat_Bending	L3_L4_axial_rotation	L2_L3_Flex_Ext	L2_L3_Lat_Bending	L2_L3_axial_rotation	L1_L2_Flex_Ext	L1_L2_Lat_Bending	L1_L2_axial_rotation	L1_T12_Flex_Ext	L1_T12_Lat_Bending	L1_T12_axial_rotation	Abs_r3	Abs_r2	Abs_r1	Abs_t1	Abs_t2	neck_flexion	neck_bending	neck_rotation	arm_flex_r	arm_add_r	arm_rot_r	elbow_flex_r	pro_sup_r	wrist_flex_r	wrist_dev_r	arm_flex_l	arm_add_l	arm_rot_l	elbow_flex_l	pro_sup_l	wrist_flex_l	wrist_dev_l
0.724138	-1.079547	-2.277455	89.625841	0.213816	0.880259	0.485060	-0.063325	-1.414946	-12.792488	12.819746	0.223747	41.830083	12.394878	0.000000	-0.762220	0.466449	19.537992	2.524300	0.044057	36.464354	-16.018052	0.000000	0.109762	-0.082885	-0.173319	0.203839	-0.110237	-0.184151	0.180328	-0.201527	-0.184151	0.125447	-0.201527	-0.151654	0.101925	-0.169019	-0.140821	0.062718	-0.128389	-0.129989	0.784021	-0.937614	-0.963946	0.000000	0.000000	17.702480	-1.132352	-5.894215	18.475455	-16.482659	85.426043	22.436040	62.920400	-6.570644	-2.267774	13.250541	-19.989908	76.022147	22.710926	90.500403	-19.733457	-3.972021
0.741379	-0.921627	-2.025074	89.173110	0.214629	0.879871	0.484010	-0.510781	-1.195148	-12.194016	12.534152	0.218762	41.567529	12.231105	0.000000	-1.252417	0.267675	19.058859	2.556921	0.044627	36.533599	-15.904528	0.000000	0.089809	-0.056555	-0.119581	0.166784	-0.075218	-0.127054	0.147547	-0.137508	-0.127054	0.102643	-0.137508	-0.104633	0.083397	-0.115327	-0.097159	0.051317	-0.087604	-0.089685	0.641496	-0.639761	-0.665072	0.000000	0.000000	17.512489	-1.071765	-5.324619	17.965554	-16.610573	90.696689	21.473063	56.984927	-6.088971	-3.122085	12.440624	-20.019308	78.272508	21.802283	89.166897	-19.743163	-3.557457
0.758621	-0.786086	-1.782787	88.735390	0.215451	0.879489	0.482902	-0.981063	-0.997296	-11.617888	12.201670	0.212959	41.358985	12.091719	0.000000	-1.746050	0.094277	18.678392	2.545784	0.044432	36.614415	-15.841050	0.000000	0.070744	-0.030499	-0.073212	0.131378	-0.040564	-0.077788	0.116225	-0.074156	-0.077788	0.080853	-0.074156	-0.064061	0.065692	-0.062194	-0.059485	0.040423	-0.047244	-0.054909	0.505314	-0.345015	-0.407186	0.000000	0.000000	17.367377	-1.080605	-4.645806	17.344810	-16.650464	95.854102	20.601178	50.337713	-5.530178	-4.008919	11.633274	-19.861562	82.652899	20.631802	85.804654	-19.516818	-3.293984
0.775862	-0.691709	-1.547969	88.313070	0.216289	0.879135	0.481740	-1.462745	-0.847377	-11.079644	11.845844	0.206749	41.220959	11.998385	0.000000	-2.243946	-0.034810	18.388221	2.478207	0.043253	36.705621	-15.810399	0.000000	0.052958	-0.008203	-0.038430	0.098347	-0.010910	-0.040831	0.087004	-0.019945	-0.040831	0.060525	-0.019945	-0.033626	0.049176	-0.016728	-0.031224	0.030260	-0.012707	-0.028822	0.378270	-0.092797	-0.213734	0.000000	0.000000	17.259760	-1.134586	-3.911736	16.635128	-16.606639	100.720125	19.823937	43.257814	-4.923371	-4.849827	10.803655	-19.551825	88.802526	19.242283	80.620240	-19.016409	-3.131789
0.793103	-0.633906	-1.317405	87.924519	0.217130	0.878823	0.480518	-1.971705	-0.731824	-10.556874	11.439925	0.199664	41.126694	11.900530	0.000000	-2.741281	-0.123409	18.202460	2.360907	0.041206	36.805578	-15.840133	0.000000	0.036807	0.010051	-0.022059	0.068355	0.013368	-0.023438	0.060471	0.024439	-0.023438	0.042067	0.024439	-0.019302	0.034179	0.020497	-0.017923	0.021032	0.015569	-0.016544	0.262912	0.113702	-0.122685	0.000000	0.000000	17.195627	-1.231510	-3.132878	15.878621	-16.477398	105.502507	19.063662	36.046651	-4.217443	-5.642392	9.926844	-19.123519	96.637622	17.654572	73.949686	-18.389081	-3.105827
0.810345	-0.615473	-1.093123	87.554576	0.217978	0.878543	0.479280	-2.480223	-0.657959	-10.039459	11.019029	0.192318	41.093381	11.811698	0.000000	-3.229530	-0.165677	18.073653	2.202191	0.038435	36.920860	-15.895061	0.000000	0.022628	0.024392	-0.029394	0.042022	0.032441	-0.031232	0.037175	0.059306	-0.031232	0.025861	0.059306	-0.025720	0.021012	0.049739	-0.023883	0.012929	0.037783	-0.022046	0.161627	0.275923	-0.163483	0.000000	0.000000	17.191108	-1.304108	-2.200386	15.121203	-16.292253	109.987526	18.329581	29.013516	-3.555363	-6.385574	8.894145	-18.635393	104.933794	16.048336	66.733787	-17.622001	-3.089036
0.827586	-0.635323	-0.884759	87.190720	0.218848	0.878285	0.478095	-2.956879	-0.635805	-9.579729	10.613755	0.185245	41.136831	11.820462	0.000000	-3.688090	-0.162321	18.001391	2.018903	0.035237	37.059183	-15.987469	0.000000	0.011527	0.033805	-0.045167	0.021406	0.044961	-0.047990	0.018937	0.082194	-0.047990	0.013174	0.082194	-0.039521	0.010704	0.068935	-0.036698	0.006586	0.052364	-0.033875	0.082333	0.382409	-0.251205	0.000000	0.000000	17.229805	-1.352401	-1.234108	14.320553	-16.060709	113.960916	17.597591	22.557381	-2.898663	-6.955982	7.831114	-18.080163	113.763017	14.400587	58.887516	-16.723181	-3.148069
0.844828	-0.664524	-0.682770	86.913266	0.219594	0.878077	0.476941	-3.457687	-0.623029	-9.221152	10.159016	0.177308	41.207100	11.870254	0.000000	-4.122086	-0.143553	18.023929	1.823561	0.031827	37.211228	-16.108233	0.000000	0.001621	0.041756	-0.085308	0.003011	0.055535	-0.090640	0.002664	0.101525	-0.090640	0.001853	0.101525	-0.074645	0.001506	0.085149	-0.069313	0.000926	0.064680	-0.063981	0.011581	0.472351	-0.474458	0.000000	0.000000	17.296195	-1.398054	-0.284000	13.501446	-15.809349	117.471007	16.854064	17.033409	-2.253251	-7.416923	6.750688	-17.468957	122.873895	12.769367	50.746868	-15.774595	-3.188313
0.862069	-0.724590	-0.503272	86.635774	0.220330	0.877883	0.475940	-3.898342	-0.658732	-8.937703	9.746535	0.170109	41.352635	12.007786	0.000000	-4.507189	-0.080123	18.082404	1.632959	0.028501	37.373665	-16.276431	0.000000	-0.007142	0.045575	-0.127098	-0.013264	0.060615	-0.135042	-0.011734	0.110812	-0.135042	-0.008163	0.110812	-0.111211	-0.006632	0.092937	-0.103267	-0.004081	0.070596	-0.095324	-0.051017	0.515556	-0.706883	0.000000	0.000000	17.410953	-1.395425	0.667874	12.633417	-15.553661	120.182471	16.148633	12.492705	-1.698091	-7.662234	5.694467	-16.836473	132.003716	11.200746	42.573987	-14.756768	-3.242535
0.879310	-0.818064	-0.351430	86.304630	0.221096	0.877696	0.475153	-4.245664	-0.747867	-8.675265	9.406065	0.164167	41.580666	12.215655	0.000000	-4.837549	0.031440	18.080463	1.450245	0.025312	37.565399	-16.426626	0.000000	-0.015515	0.044576	-0.153907	-0.028813	0.059286	-0.163526	-0.025490	0.108382	-0.163526	-0.017732	0.108382	-0.134668	-0.014407	0.090899	-0.125049	-0.008865	0.069048	-0.115430	-0.110823	0.504251	-0.855982	0.000000	0.000000	17.574939	-1.379261	1.514857	11.726551	-15.327506	121.973833	15.511789	8.883625	-1.274142	-7.687682	4.758542	-16.183258	141.237496	9.682483	34.575899	-13.727719	-3.281380
0.896552	-0.948895	-0.232480	85.909516	0.221885	0.877495	0.474600	-4.479511	-0.900594	-8.476137	9.162244	0.159911	41.895890	12.535911	0.000000	-5.102849	0.196531	18.064563	1.281681	0.022370	37.775868	-16.613588	0.000000	-0.023322	0.038458	-0.164112	-0.043312	0.051149	-0.174369	-0.038317	0.093506	-0.174369	-0.026655	0.093506	-0.143598	-0.021657	0.078423	-0.133341	-0.013326	0.059571	-0.123084	-0.166590	0.435041	-0.912742	0.000000	0.000000	17.777220	-1.334756	2.262404	10.763977	-15.137944	122.474961	14.982761	6.478463	-1.010753	-7.404434	3.889147	-15.522972	150.499024	8.198542	26.958319	-12.669551	-3.302739
0.913793	-1.118485	-0.144945	85.428318	0.222699	0.877278	0.474333	-4.585983	-1.115960	-8.282686	9.032937	0.157654	42.276419	12.904120	0.000000	-5.300576	0.414908	17.956701	1.130989	0.019739	38.023836	-16.751198	0.000000	-0.031942	0.026851	-0.152654	-0.059319	0.035712	-0.162195	-0.052477	0.065286	-0.162195	-0.036506	0.065286	-0.133572	-0.029661	0.054755	-0.124031	-0.018252	0.041593	-0.114490	-0.228157	0.303747	-0.849015	0.000000	0.000000	18.012361	-1.283436	2.852119	9.829059	-15.000310	121.995960	14.541186	4.900731	-0.958272	-6.897726	3.143696	-14.861608	159.442858	6.760206	19.871099	-11.654774	-3.376362
0.931034	-1.326046	-0.095002	84.855241	0.223531	0.877013	0.474383	-4.541658	-1.396353	-8.117054	9.048845	0.157932	42.713856	13.348908	0.000000	-5.420726	0.684689	17.760897	1.001153	0.017473	38.292516	-16.857813	0.000000	-0.040678	0.010401	-0.123995	-0.075544	0.013833	-0.131744	-0.066831	0.025288	-0.131744	-0.046491	0.025288	-0.108495	-0.037774	0.021209	-0.100746	-0.023244	0.016111	-0.092996	-0.290562	0.117654	-0.689621	0.000000	0.000000	18.292331	-1.242108	3.332911	9.031316	-14.886993	121.276091	14.147929	3.742470	-1.195931	-6.289047	2.459940	-14.318815	166.657031	5.611999	13.637148	-10.632032	-3.517659
